<?xml version="1.0" encoding="utf-8" ?>
<svg baseProfile="full" height="1169.29131" version="1.1" width="1417.3228" xmlns="http://www.w3.org/2000/svg" xmlns:ev="http://www.w3.org/2001/xml-events" xmlns:xlink="http://www.w3.org/1999/xlink"><defs /><rect fill="white" height="1169.29131" opacity="1" stroke-width="0" width="1417.3228" x="0.0" y="0.0" /><g><g id="vlines" stroke="lightgray"><line x1="0.0" x2="0.0" y1="70.86614" y2="1133.85824" /><text fill="black" font-family="Arial Bold" font-size="16" font-weight="bold" stroke="black" stroke-width="0" x="3.543307" y="53.149605">37</text><line x1="35.43307" x2="35.43307" y1="70.86614" y2="1133.85824" /><text fill="black" font-family="Arial Bold" font-size="16" font-weight="bold" stroke="black" stroke-width="0" x="38.976377" y="53.149605">38</text><line x1="70.86614" x2="70.86614" y1="70.86614" y2="1133.85824" /><text fill="black" font-family="Arial Bold" font-size="16" font-weight="bold" stroke="black" stroke-width="0" x="74.409447" y="53.149605">39</text><line x1="106.29921" x2="106.29921" y1="70.86614" y2="1133.85824" /><text fill="#800000" font-family="Arial Bold" font-size="18" font-weight="bold" stroke="#800000" stroke-width="0" x="109.842517" y="35.43307">October</text><text fill="black" font-family="Arial Bold" font-size="16" font-weight="bold" stroke="black" stroke-width="0" x="109.842517" y="53.149605">40</text><line x1="141.73228" x2="141.73228" y1="70.86614" y2="1133.85824" /><text fill="black" font-family="Arial Bold" font-size="16" font-weight="bold" stroke="black" stroke-width="0" x="145.275587" y="53.149605">41</text><line x1="177.16535" x2="177.16535" y1="70.86614" y2="1133.85824" /><text fill="black" font-family="Arial Bold" font-size="16" font-weight="bold" stroke="black" stroke-width="0" x="180.708657" y="53.149605">42</text><line x1="212.59842" x2="212.59842" y1="70.86614" y2="1133.85824" /><text fill="black" font-family="Arial Bold" font-size="16" font-weight="bold" stroke="black" stroke-width="0" x="216.141727" y="53.149605">43</text><line x1="248.03149000000002" x2="248.03149000000002" y1="70.86614" y2="1133.85824" /><text fill="#800000" font-family="Arial Bold" font-size="18" font-weight="bold" stroke="#800000" stroke-width="0" x="251.574797" y="35.43307">November</text><text fill="black" font-family="Arial Bold" font-size="16" font-weight="bold" stroke="black" stroke-width="0" x="251.574797" y="53.149605">44</text><line x1="283.46456" x2="283.46456" y1="70.86614" y2="1133.85824" /><text fill="black" font-family="Arial Bold" font-size="16" font-weight="bold" stroke="black" stroke-width="0" x="287.007867" y="53.149605">45</text><line x1="318.89763" x2="318.89763" y1="70.86614" y2="1133.85824" /><text fill="black" font-family="Arial Bold" font-size="16" font-weight="bold" stroke="black" stroke-width="0" x="322.440937" y="53.149605">46</text><line x1="354.3307" x2="354.3307" y1="70.86614" y2="1133.85824" /><text fill="black" font-family="Arial Bold" font-size="16" font-weight="bold" stroke="black" stroke-width="0" x="357.874007" y="53.149605">47</text><line x1="389.76377" x2="389.76377" y1="70.86614" y2="1133.85824" /><text fill="black" font-family="Arial Bold" font-size="16" font-weight="bold" stroke="black" stroke-width="0" x="393.307077" y="53.149605">48</text><line x1="425.19684" x2="425.19684" y1="70.86614" y2="1133.85824" /><text fill="#800000" font-family="Arial Bold" font-size="18" font-weight="bold" stroke="#800000" stroke-width="0" x="428.740147" y="35.43307">December</text><text fill="black" font-family="Arial Bold" font-size="16" font-weight="bold" stroke="black" stroke-width="0" x="428.740147" y="53.149605">49</text><line x1="460.62991" x2="460.62991" y1="70.86614" y2="1133.85824" /><text fill="black" font-family="Arial Bold" font-size="16" font-weight="bold" stroke="black" stroke-width="0" x="464.173217" y="53.149605">50</text><line x1="496.06298000000004" x2="496.06298000000004" y1="70.86614" y2="1133.85824" /><text fill="black" font-family="Arial Bold" font-size="16" font-weight="bold" stroke="black" stroke-width="0" x="499.606287" y="53.149605">51</text><line x1="531.49605" x2="531.49605" y1="70.86614" y2="1133.85824" /><text fill="black" font-family="Arial Bold" font-size="16" font-weight="bold" stroke="black" stroke-width="0" x="535.039357" y="53.149605">52</text><line x1="566.92912" x2="566.92912" y1="70.86614" y2="1133.85824" /><text fill="#400000" font-family="Arial Bold" font-size="20" font-weight="bold" stroke="#400000" stroke-width="0" x="570.472427" y="17.716535">2019</text><text fill="#800000" font-family="Arial Bold" font-size="18" font-weight="bold" stroke="#800000" stroke-width="0" x="570.472427" y="35.43307">January</text><text fill="black" font-family="Arial Bold" font-size="16" font-weight="bold" stroke="black" stroke-width="0" x="570.472427" y="53.149605">01</text><line x1="602.36219" x2="602.36219" y1="70.86614" y2="1133.85824" /><text fill="black" font-family="Arial Bold" font-size="16" font-weight="bold" stroke="black" stroke-width="0" x="605.905497" y="53.149605">02</text><line x1="637.79526" x2="637.79526" y1="70.86614" y2="1133.85824" /><text fill="black" font-family="Arial Bold" font-size="16" font-weight="bold" stroke="black" stroke-width="0" x="641.338567" y="53.149605">03</text><line x1="673.22833" x2="673.22833" y1="70.86614" y2="1133.85824" /><text fill="black" font-family="Arial Bold" font-size="16" font-weight="bold" stroke="black" stroke-width="0" x="676.7716369999999" y="53.149605">04</text><line x1="708.6614" x2="708.6614" y1="70.86614" y2="1133.85824" /><text fill="black" font-family="Arial Bold" font-size="16" font-weight="bold" stroke="black" stroke-width="0" x="712.204707" y="53.149605">05</text><line x1="744.09447" x2="744.09447" y1="70.86614" y2="1133.85824" /><text fill="#800000" font-family="Arial Bold" font-size="18" font-weight="bold" stroke="#800000" stroke-width="0" x="747.637777" y="35.43307">February</text><text fill="black" font-family="Arial Bold" font-size="16" font-weight="bold" stroke="black" stroke-width="0" x="747.637777" y="53.149605">06</text><line x1="779.52754" x2="779.52754" y1="70.86614" y2="1133.85824" /><text fill="black" font-family="Arial Bold" font-size="16" font-weight="bold" stroke="black" stroke-width="0" x="783.070847" y="53.149605">07</text><line x1="814.96061" x2="814.96061" y1="70.86614" y2="1133.85824" /><text fill="black" font-family="Arial Bold" font-size="16" font-weight="bold" stroke="black" stroke-width="0" x="818.503917" y="53.149605">08</text><line x1="850.39368" x2="850.39368" y1="70.86614" y2="1133.85824" /><text fill="black" font-family="Arial Bold" font-size="16" font-weight="bold" stroke="black" stroke-width="0" x="853.936987" y="53.149605">09</text><line x1="885.8267500000001" x2="885.8267500000001" y1="70.86614" y2="1133.85824" /><text fill="#800000" font-family="Arial Bold" font-size="18" font-weight="bold" stroke="#800000" stroke-width="0" x="889.370057" y="35.43307">March</text><text fill="black" font-family="Arial Bold" font-size="16" font-weight="bold" stroke="black" stroke-width="0" x="889.370057" y="53.149605">10</text><line x1="921.25982" x2="921.25982" y1="70.86614" y2="1133.85824" /><text fill="black" font-family="Arial Bold" font-size="16" font-weight="bold" stroke="black" stroke-width="0" x="924.803127" y="53.149605">11</text><line x1="956.69289" x2="956.69289" y1="70.86614" y2="1133.85824" /><text fill="black" font-family="Arial Bold" font-size="16" font-weight="bold" stroke="black" stroke-width="0" x="960.236197" y="53.149605">12</text><line x1="992.1259600000001" x2="992.1259600000001" y1="70.86614" y2="1133.85824" /><text fill="black" font-family="Arial Bold" font-size="16" font-weight="bold" stroke="black" stroke-width="0" x="995.669267" y="53.149605">13</text><line x1="1027.5590300000001" x2="1027.5590300000001" y1="70.86614" y2="1133.85824" /><text fill="#800000" font-family="Arial Bold" font-size="18" font-weight="bold" stroke="#800000" stroke-width="0" x="1031.102337" y="35.43307">April</text><text fill="black" font-family="Arial Bold" font-size="16" font-weight="bold" stroke="black" stroke-width="0" x="1031.102337" y="53.149605">14</text><line x1="1062.9921" x2="1062.9921" y1="70.86614" y2="1133.85824" /><text fill="black" font-family="Arial Bold" font-size="16" font-weight="bold" stroke="black" stroke-width="0" x="1066.535407" y="53.149605">15</text><line x1="1098.42517" x2="1098.42517" y1="70.86614" y2="1133.85824" /><text fill="black" font-family="Arial Bold" font-size="16" font-weight="bold" stroke="black" stroke-width="0" x="1101.968477" y="53.149605">16</text><line x1="1133.85824" x2="1133.85824" y1="70.86614" y2="1133.85824" /><text fill="black" font-family="Arial Bold" font-size="16" font-weight="bold" stroke="black" stroke-width="0" x="1137.401547" y="53.149605">17</text><line x1="1169.29131" x2="1169.29131" y1="70.86614" y2="1133.85824" /><text fill="#800000" font-family="Arial Bold" font-size="18" font-weight="bold" stroke="#800000" stroke-width="0" x="1172.834617" y="35.43307">May</text><text fill="black" font-family="Arial Bold" font-size="16" font-weight="bold" stroke="black" stroke-width="0" x="1172.834617" y="53.149605">18</text><line x1="1204.72438" x2="1204.72438" y1="70.86614" y2="1133.85824" /><text fill="black" font-family="Arial Bold" font-size="16" font-weight="bold" stroke="black" stroke-width="0" x="1208.267687" y="53.149605">19</text><line x1="1240.15745" x2="1240.15745" y1="70.86614" y2="1133.85824" /><text fill="black" font-family="Arial Bold" font-size="16" font-weight="bold" stroke="black" stroke-width="0" x="1243.700757" y="53.149605">20</text><line x1="1275.59052" x2="1275.59052" y1="70.86614" y2="1133.85824" /><text fill="black" font-family="Arial Bold" font-size="16" font-weight="bold" stroke="black" stroke-width="0" x="1279.1338269999999" y="53.149605">21</text><line x1="1311.02359" x2="1311.02359" y1="70.86614" y2="1133.85824" /><text fill="black" font-family="Arial Bold" font-size="16" font-weight="bold" stroke="black" stroke-width="0" x="1314.566897" y="53.149605">22</text><line x1="1346.45666" x2="1346.45666" y1="70.86614" y2="1133.85824" /><text fill="#800000" font-family="Arial Bold" font-size="18" font-weight="bold" stroke="#800000" stroke-width="0" x="1349.999967" y="35.43307">June</text><text fill="black" font-family="Arial Bold" font-size="16" font-weight="bold" stroke="black" stroke-width="0" x="1349.999967" y="53.149605">23</text><line x1="1381.88973" x2="1381.88973" y1="70.86614" y2="1133.85824" /><text fill="black" font-family="Arial Bold" font-size="16" font-weight="bold" stroke="black" stroke-width="0" x="1385.433037" y="53.149605">24</text><line x1="1417.3228" x2="1417.3228" y1="70.86614" y2="1133.85824" /></g><g id="hlines" stroke="lightgray"><line x1="0.0" x2="1417.3228" y1="70.86614" y2="70.86614" /><line x1="0.0" x2="1417.3228" y1="106.29921" y2="106.29921" /><line x1="0.0" x2="1417.3228" y1="141.73228" y2="141.73228" /><line x1="0.0" x2="1417.3228" y1="177.16535" y2="177.16535" /><line x1="0.0" x2="1417.3228" y1="212.59842" y2="212.59842" /><line x1="0.0" x2="1417.3228" y1="248.03149000000002" y2="248.03149000000002" /><line x1="0.0" x2="1417.3228" y1="283.46456" y2="283.46456" /><line x1="0.0" x2="1417.3228" y1="318.89763" y2="318.89763" /><line x1="0.0" x2="1417.3228" y1="354.3307" y2="354.3307" /><line x1="0.0" x2="1417.3228" y1="389.76377" y2="389.76377" /><line x1="0.0" x2="1417.3228" y1="425.19684" y2="425.19684" /><line x1="0.0" x2="1417.3228" y1="460.62991" y2="460.62991" /><line x1="0.0" x2="1417.3228" y1="496.06298000000004" y2="496.06298000000004" /><line x1="0.0" x2="1417.3228" y1="531.49605" y2="531.49605" /><line x1="0.0" x2="1417.3228" y1="566.92912" y2="566.92912" /><line x1="0.0" x2="1417.3228" y1="602.36219" y2="602.36219" /><line x1="0.0" x2="1417.3228" y1="637.79526" y2="637.79526" /><line x1="0.0" x2="1417.3228" y1="673.22833" y2="673.22833" /><line x1="0.0" x2="1417.3228" y1="708.6614" y2="708.6614" /><line x1="0.0" x2="1417.3228" y1="744.09447" y2="744.09447" /><line x1="0.0" x2="1417.3228" y1="779.52754" y2="779.52754" /><line x1="0.0" x2="1417.3228" y1="814.96061" y2="814.96061" /><line x1="0.0" x2="1417.3228" y1="850.39368" y2="850.39368" /><line x1="0.0" x2="1417.3228" y1="885.8267500000001" y2="885.8267500000001" /><line x1="0.0" x2="1417.3228" y1="921.25982" y2="921.25982" /><line x1="0.0" x2="1417.3228" y1="956.69289" y2="956.69289" /><line x1="0.0" x2="1417.3228" y1="992.1259600000001" y2="992.1259600000001" /><line x1="0.0" x2="1417.3228" y1="1027.5590300000001" y2="1027.5590300000001" /><line x1="0.0" x2="1417.3228" y1="1062.9921" y2="1062.9921" /><line x1="0.0" x2="1417.3228" y1="1098.42517" y2="1098.42517" /><line x1="0.0" x2="1417.3228" y1="1133.85824" y2="1133.85824" /></g><line stroke="black" x1="0.0" x2="1417.3228" y1="70.86614" y2="70.86614" /><line stroke="black" x1="0.0" x2="1417.3228" y1="1133.85824" y2="1133.85824" /></g><g><g><text fill="black" font-family="Arial Bold" font-size="18" stroke="black" stroke-width="0.001" x="10.629921" y="95.669289">Matemáticas 1º Bachillerato CIT</text><rect fill="purple" height="1041.732258" opacity="0.5" stroke="lightgray" stroke-width="0" width="7.086614000000001" x="2.8346456" y="88.582675" /><g><g id="Presentación"><rect fill="#FF8080" height="28.346456" opacity="0.85" stroke="#FF8080" stroke-width="2" width="28.346456" x="3.543307" y="109.842517" /><rect fill="#909090" height="10.629921" opacity="0.2" stroke="#FF8080" stroke-width="1" width="28.346456" x="3.543307" y="127.559052" /><text fill="black" font-family="Arial Bold" font-size="15" stroke="black" stroke-width="0.001" x="7.086614" y="124.015745">Presentación</text></g><g><text fill="black" font-family="Arial Bold" font-size="18" stroke="black" stroke-width="0.001" x="31.889763" y="166.535429">Aritmética y álgebra</text><rect fill="purple" height="333.07085800000004" opacity="0.5" stroke="lightgray" stroke-width="0" width="7.086614000000001" x="24.0944876" y="159.448815" /><g><g id="Números_reales"><rect fill="#FF8080" height="28.346456" opacity="0.85" stroke="#FF8080" stroke-width="2" width="28.346456" x="38.976377" y="180.708657" /><rect fill="#909090" height="10.629921" opacity="0.2" stroke="#FF8080" stroke-width="1" width="28.346456" x="38.976377" y="198.425192" /><text fill="black" font-family="Arial Bold" font-size="15" stroke="black" stroke-width="0.001" x="42.519684" y="194.881885">Números reales</text></g><g id="Potencias__aproximaciones_y_raíces&#10;"><rect fill="#FF8080" height="28.346456" opacity="0.85" stroke="#FF8080" stroke-width="2" width="63.779526" x="38.976377" y="216.141727" /><rect fill="#909090" height="10.629921" opacity="0.2" stroke="#FF8080" stroke-width="1" width="63.779526" x="38.976377" y="233.858262" /><text fill="black" font-family="Arial Bold" font-size="15" stroke="black" stroke-width="0.001" x="42.519684" y="230.314955">Potencias, aproximaciones y raíces
</text></g><g id="Números_combinatorios"><rect fill="#FF8080" height="28.346456" opacity="0.85" stroke="#FF8080" stroke-width="2" width="63.779526" x="74.409447" y="251.574797" /><rect fill="#909090" height="10.629921" opacity="0.2" stroke="#FF8080" stroke-width="1" width="63.779526" x="74.409447" y="269.291332" /><text fill="black" font-family="Arial Bold" font-size="15" stroke="black" stroke-width="0.001" x="77.952754" y="265.748025">Números combinatorios</text></g><g id="Polinomios"><rect fill="#FF8080" height="28.346456" opacity="0.85" stroke="#FF8080" stroke-width="2" width="63.779526" x="109.842517" y="287.007867" /><rect fill="#909090" height="10.629921" opacity="0.2" stroke="#FF8080" stroke-width="1" width="63.779526" x="109.842517" y="304.724402" /><text fill="black" font-family="Arial Bold" font-size="15" stroke="black" stroke-width="0.001" x="113.385824" y="301.18109499999997">Polinomios</text></g><g id="Fracciones_algebraicas"><rect fill="#FF8080" height="28.346456" opacity="0.85" stroke="#FF8080" stroke-width="2" width="63.779526" x="145.275587" y="322.440937" /><rect fill="#909090" height="10.629921" opacity="0.2" stroke="#FF8080" stroke-width="1" width="63.779526" x="145.275587" y="340.157472" /><text fill="black" font-family="Arial Bold" font-size="15" stroke="black" stroke-width="0.001" x="148.818894" y="336.614165">Fracciones algebraicas</text></g><g id="Ecuaciones_de_2o_grado"><rect fill="#FF8080" height="28.346456" opacity="0.85" stroke="#FF8080" stroke-width="2" width="28.346456" x="180.708657" y="357.874007" /><rect fill="#909090" height="10.629921" opacity="0.2" stroke="#FF8080" stroke-width="1" width="28.346456" x="180.708657" y="375.59054199999997" /><text fill="black" font-family="Arial Bold" font-size="15" stroke="black" stroke-width="0.001" x="184.251964" y="372.047235">Ecuaciones de 2o grado</text></g><g id="Sistemas_de_ecuaciones"><rect fill="#FF8080" height="28.346456" opacity="0.85" stroke="#FF8080" stroke-width="2" width="63.779526" x="216.141727" y="393.307077" /><rect fill="#909090" height="10.629921" opacity="0.2" stroke="#FF8080" stroke-width="1" width="63.779526" x="216.141727" y="411.023612" /><text fill="black" font-family="Arial Bold" font-size="15" stroke="black" stroke-width="0.001" x="219.685034" y="407.480305">Sistemas de ecuaciones</text></g><g id="Inecuaciones_y_sistemas"><rect fill="#FF8080" height="28.346456" opacity="0.85" stroke="#FF8080" stroke-width="2" width="99.212596" x="251.574797" y="428.740147" /><rect fill="#909090" height="10.629921" opacity="0.2" stroke="#FF8080" stroke-width="1" width="99.212596" x="251.574797" y="446.456682" /><text fill="black" font-family="Arial Bold" font-size="15" stroke="black" stroke-width="0.001" x="255.118104" y="442.913375">Inecuaciones y sistemas</text></g><g id="Otras_ecuaciones"><rect fill="#FF8080" height="28.346456" opacity="0.85" stroke="#FF8080" stroke-width="2" width="63.779526" x="322.440937" y="464.173217" /><rect fill="#909090" height="10.629921" opacity="0.2" stroke="#FF8080" stroke-width="1" width="63.779526" x="322.440937" y="481.889752" /><text fill="black" font-family="Arial Bold" font-size="15" stroke="black" stroke-width="0.001" x="325.984244" y="478.346445">Otras ecuaciones</text></g></g></g><g><text fill="black" font-family="Arial Bold" font-size="18" stroke="black" stroke-width="0.001" x="31.889763" y="520.866129">Geometría</text><rect fill="purple" height="155.90550800000003" opacity="0.5" stroke="lightgray" stroke-width="0" width="7.086614000000001" x="24.0944876" y="513.7795150000001" /><g><g id="Vectores"><rect fill="#FF8080" height="28.346456" opacity="0.85" stroke="#FF8080" stroke-width="2" width="134.645666" x="357.874007" y="535.039357" /><rect fill="#909090" height="10.629921" opacity="0.2" stroke="#FF8080" stroke-width="1" width="134.645666" x="357.874007" y="552.755892" /><text fill="black" font-family="Arial Bold" font-size="15" stroke="black" stroke-width="0.001" x="361.417314" y="549.212585">Vectores</text></g><g id="Producto_escalar"><rect fill="#FF8080" height="28.346456" opacity="0.85" stroke="#FF8080" stroke-width="2" width="63.779526" x="464.173217" y="570.472427" /><rect fill="#909090" height="10.629921" opacity="0.2" stroke="#FF8080" stroke-width="1" width="63.779526" x="464.173217" y="588.188962" /><text fill="black" font-family="Arial Bold" font-size="15" stroke="black" stroke-width="0.001" x="467.716524" y="584.645655">Producto escalar</text></g><g id="Trigonometría"><rect fill="#FF8080" height="28.346456" opacity="0.85" stroke="#FF8080" stroke-width="2" width="63.779526" x="605.905497" y="605.905497" /><rect fill="#909090" height="10.629921" opacity="0.2" stroke="#FF8080" stroke-width="1" width="63.779526" x="605.905497" y="623.622032" /><text fill="black" font-family="Arial Bold" font-size="15" stroke="black" stroke-width="0.001" x="609.448804" y="620.078725">Trigonometría</text></g><g id="Cónicas"><rect fill="#FF8080" height="28.346456" opacity="0.85" stroke="#FF8080" stroke-width="2" width="28.346456" x="676.7716369999999" y="641.338567" /><rect fill="#909090" height="10.629921" opacity="0.2" stroke="#FF8080" stroke-width="1" width="28.346456" x="676.7716369999999" y="659.055102" /><text fill="black" font-family="Arial Bold" font-size="15" stroke="black" stroke-width="0.001" x="680.314944" y="655.511795">Cónicas</text></g></g></g><g><text fill="black" font-family="Arial Bold" font-size="18" stroke="black" stroke-width="0.001" x="31.889763" y="698.031479">Estadística y probabilidad</text><rect fill="purple" height="155.90550800000003" opacity="0.5" stroke="lightgray" stroke-width="0" width="7.086614000000001" x="24.0944876" y="690.944865" /><g><g id="Estadística_unidimesional"><rect fill="#FF8080" height="28.346456" opacity="0.85" stroke="#FF8080" stroke-width="2" width="99.212596" x="676.7716369999999" y="712.204707" /><rect fill="#909090" height="10.629921" opacity="0.2" stroke="#FF8080" stroke-width="1" width="99.212596" x="676.7716369999999" y="729.921242" /><text fill="black" font-family="Arial Bold" font-size="15" stroke="black" stroke-width="0.001" x="680.314944" y="726.377935">Estadística unidimesional</text></g><g id="Estadística_bidimesional"><rect fill="#FF8080" height="28.346456" opacity="0.85" stroke="#FF8080" stroke-width="2" width="63.779526" x="747.637777" y="747.637777" /><rect fill="#909090" height="10.629921" opacity="0.2" stroke="#FF8080" stroke-width="1" width="63.779526" x="747.637777" y="765.354312" /><text fill="black" font-family="Arial Bold" font-size="15" stroke="black" stroke-width="0.001" x="751.1810839999999" y="761.811005">Estadística bidimesional</text></g><g id="Probabilidad"><rect fill="#FF8080" height="28.346456" opacity="0.85" stroke="#FF8080" stroke-width="2" width="63.779526" x="783.070847" y="783.070847" /><rect fill="#909090" height="10.629921" opacity="0.2" stroke="#FF8080" stroke-width="1" width="63.779526" x="783.070847" y="800.787382" /><text fill="black" font-family="Arial Bold" font-size="15" stroke="black" stroke-width="0.001" x="786.614154" y="797.244075">Probabilidad</text></g><g id="Variables_aleatorias"><rect fill="#FF8080" height="28.346456" opacity="0.85" stroke="#FF8080" stroke-width="2" width="63.779526" x="818.503917" y="818.503917" /><rect fill="#909090" height="10.629921" opacity="0.2" stroke="#FF8080" stroke-width="1" width="63.779526" x="818.503917" y="836.220452" /><text fill="black" font-family="Arial Bold" font-size="15" stroke="black" stroke-width="0.001" x="822.047224" y="832.677145">Variables aleatorias</text></g></g></g><g><text fill="black" font-family="Arial Bold" font-size="18" stroke="black" stroke-width="0.001" x="31.889763" y="875.196829">Análisis</text><rect fill="purple" height="262.204718" opacity="0.5" stroke="lightgray" stroke-width="0" width="7.086614000000001" x="24.0944876" y="868.110215" /><g><g id="Sucesiones"><rect fill="#FF8080" height="28.346456" opacity="0.85" stroke="#FF8080" stroke-width="2" width="99.212596" x="853.936987" y="889.370057" /><rect fill="#909090" height="10.629921" opacity="0.2" stroke="#FF8080" stroke-width="1" width="99.212596" x="853.936987" y="907.086592" /><text fill="black" font-family="Arial Bold" font-size="15" stroke="black" stroke-width="0.001" x="857.480294" y="903.543285">Sucesiones</text></g><g id="Funciones"><rect fill="#FF8080" height="28.346456" opacity="0.85" stroke="#FF8080" stroke-width="2" width="63.779526" x="924.803127" y="924.803127" /><rect fill="#909090" height="10.629921" opacity="0.2" stroke="#FF8080" stroke-width="1" width="63.779526" x="924.803127" y="942.519662" /><text fill="black" font-family="Arial Bold" font-size="15" stroke="black" stroke-width="0.001" x="928.346434" y="938.976355">Funciones</text></g><g id="Límites"><rect fill="#FF8080" height="28.346456" opacity="0.85" stroke="#FF8080" stroke-width="2" width="99.212596" x="960.236197" y="960.236197" /><rect fill="#909090" height="10.629921" opacity="0.2" stroke="#FF8080" stroke-width="1" width="99.212596" x="960.236197" y="977.952732" /><text fill="black" font-family="Arial Bold" font-size="15" stroke="black" stroke-width="0.001" x="963.779504" y="974.4094249999999">Límites</text></g><g id="Continuidad_de_funciones"><rect fill="#FF8080" height="28.346456" opacity="0.85" stroke="#FF8080" stroke-width="2" width="28.346456" x="1066.535407" y="995.669267" /><rect fill="#909090" height="10.629921" opacity="0.2" stroke="#FF8080" stroke-width="1" width="28.346456" x="1066.535407" y="1013.385802" /><text fill="black" font-family="Arial Bold" font-size="15" stroke="black" stroke-width="0.001" x="1070.078714" y="1009.842495">Continuidad de funciones</text></g><g id="Derivada_de_una_función"><rect fill="#FF8080" height="28.346456" opacity="0.85" stroke="#FF8080" stroke-width="2" width="134.645666" x="1137.401547" y="1031.102337" /><rect fill="#909090" height="10.629921" opacity="0.2" stroke="#FF8080" stroke-width="1" width="134.645666" x="1137.401547" y="1048.818872" /><text fill="black" font-family="Arial Bold" font-size="15" stroke="black" stroke-width="0.001" x="1140.944854" y="1045.275565">Derivada de una función</text></g><g id="Aplicaciones_de_la_derivada"><rect fill="#FF8080" height="28.346456" opacity="0.85" stroke="#FF8080" stroke-width="2" width="99.212596" x="1243.700757" y="1066.535407" /><rect fill="#909090" height="10.629921" opacity="0.2" stroke="#FF8080" stroke-width="1" width="99.212596" x="1243.700757" y="1084.251942" /><text fill="black" font-family="Arial Bold" font-size="15" stroke="black" stroke-width="0.001" x="1247.244064" y="1080.708635">Aplicaciones de la derivada</text></g><g id="Primitivas._Integral_indefinida"><rect fill="#FF8080" height="28.346456" opacity="0.85" stroke="#FF8080" stroke-width="2" width="63.779526" x="1314.566897" y="1101.968477" /><rect fill="#909090" height="10.629921" opacity="0.2" stroke="#FF8080" stroke-width="1" width="63.779526" x="1314.566897" y="1119.685012" /><text fill="black" font-family="Arial Bold" font-size="15" stroke="black" stroke-width="0.001" x="1318.110204" y="1116.141705">Primitivas. Integral indefinida</text></g></g></g></g></g><g><g><g><line stroke="black" stroke-dasharray="5,3" x1="28.346456" x2="35.43307" y1="124.015745" y2="124.015745" /><marker id="id116" markerHeight="10" markerWidth="10" refX="5" refY="5"><circle cx="5" cy="5" fill="#000000" opacity="0.5" r="5" stroke-width="0" /></marker><line marker-end="url(#id116)" stroke="black" stroke-dasharray="5,3" x1="35.43307" x2="35.43307" y1="124.015745" y2="194.881885" /></g><g><line stroke="black" stroke-dasharray="5,3" x1="63.779526" x2="35.43307" y1="194.881885" y2="194.881885" /><marker id="id117" markerHeight="10" markerWidth="10" refX="5" refY="5"><circle cx="5" cy="5" fill="#000000" opacity="0.5" r="5" stroke-width="0" /></marker><line marker-end="url(#id117)" stroke="black" stroke-dasharray="5,3" x1="35.43307" x2="35.43307" y1="194.881885" y2="230.314955" /></g><g><line stroke="black" stroke-dasharray="5,3" x1="99.212596" x2="70.86614" y1="230.314955" y2="230.314955" /><marker id="id118" markerHeight="10" markerWidth="10" refX="5" refY="5"><circle cx="5" cy="5" fill="#000000" opacity="0.5" r="5" stroke-width="0" /></marker><line marker-end="url(#id118)" stroke="black" stroke-dasharray="5,3" x1="70.86614" x2="70.86614" y1="230.314955" y2="265.748025" /></g><g><line stroke="black" stroke-dasharray="5,3" x1="134.645666" x2="106.29921" y1="265.748025" y2="265.748025" /><marker id="id119" markerHeight="10" markerWidth="10" refX="5" refY="5"><circle cx="5" cy="5" fill="#000000" opacity="0.5" r="5" stroke-width="0" /></marker><line marker-end="url(#id119)" stroke="black" stroke-dasharray="5,3" x1="106.29921" x2="106.29921" y1="265.748025" y2="301.18109499999997" /></g><g><line stroke="black" stroke-dasharray="5,3" x1="170.078736" x2="141.73228" y1="301.18109499999997" y2="301.18109499999997" /><marker id="id120" markerHeight="10" markerWidth="10" refX="5" refY="5"><circle cx="5" cy="5" fill="#000000" opacity="0.5" r="5" stroke-width="0" /></marker><line marker-end="url(#id120)" stroke="black" stroke-dasharray="5,3" x1="141.73228" x2="141.73228" y1="301.18109499999997" y2="336.614165" /></g><g><line stroke="black" stroke-dasharray="5,3" x1="205.511806" x2="177.16535" y1="336.614165" y2="336.614165" /><marker id="id121" markerHeight="10" markerWidth="10" refX="5" refY="5"><circle cx="5" cy="5" fill="#000000" opacity="0.5" r="5" stroke-width="0" /></marker><line marker-end="url(#id121)" stroke="black" stroke-dasharray="5,3" x1="177.16535" x2="177.16535" y1="336.614165" y2="372.047235" /></g><g><line stroke="black" stroke-dasharray="5,3" x1="205.511806" x2="212.59842" y1="372.047235" y2="372.047235" /><marker id="id122" markerHeight="10" markerWidth="10" refX="5" refY="5"><circle cx="5" cy="5" fill="#000000" opacity="0.5" r="5" stroke-width="0" /></marker><line marker-end="url(#id122)" stroke="black" stroke-dasharray="5,3" x1="212.59842" x2="212.59842" y1="372.047235" y2="407.480305" /></g><g><line stroke="black" stroke-dasharray="5,3" x1="276.377946" x2="248.03149" y1="407.480305" y2="407.480305" /><marker id="id123" markerHeight="10" markerWidth="10" refX="5" refY="5"><circle cx="5" cy="5" fill="#000000" opacity="0.5" r="5" stroke-width="0" /></marker><line marker-end="url(#id123)" stroke="black" stroke-dasharray="5,3" x1="248.03149" x2="248.03149" y1="407.480305" y2="442.913375" /></g><g><line stroke="black" stroke-dasharray="5,3" x1="347.244086" x2="318.89763" y1="442.913375" y2="442.913375" /><marker id="id124" markerHeight="10" markerWidth="10" refX="5" refY="5"><circle cx="5" cy="5" fill="#000000" opacity="0.5" r="5" stroke-width="0" /></marker><line marker-end="url(#id124)" stroke="black" stroke-dasharray="5,3" x1="318.89763" x2="318.89763" y1="442.913375" y2="478.346445" /></g></g><g><g><line stroke="black" stroke-dasharray="5,3" x1="382.677156" x2="354.3307" y1="478.346445" y2="478.346445" /><marker id="id125" markerHeight="10" markerWidth="10" refX="5" refY="5"><circle cx="5" cy="5" fill="#000000" opacity="0.5" r="5" stroke-width="0" /></marker><line marker-end="url(#id125)" stroke="black" stroke-dasharray="5,3" x1="354.3307" x2="354.3307" y1="478.346445" y2="549.212585" /></g><g><line stroke="black" stroke-dasharray="5,3" x1="488.976366" x2="460.62991" y1="549.212585" y2="549.212585" /><marker id="id126" markerHeight="10" markerWidth="10" refX="5" refY="5"><circle cx="5" cy="5" fill="#000000" opacity="0.5" r="5" stroke-width="0" /></marker><line marker-end="url(#id126)" stroke="black" stroke-dasharray="5,3" x1="460.62991" x2="460.62991" y1="549.212585" y2="584.645655" /></g><g><line stroke="black" stroke-dasharray="5,3" x1="524.409436" x2="602.3621899999999" y1="584.645655" y2="584.645655" /><marker id="id127" markerHeight="10" markerWidth="10" refX="5" refY="5"><circle cx="5" cy="5" fill="#000000" opacity="0.5" r="5" stroke-width="0" /></marker><line marker-end="url(#id127)" stroke="black" stroke-dasharray="5,3" x1="602.3621899999999" x2="602.3621899999999" y1="584.645655" y2="620.078725" /></g><g><line stroke="black" stroke-dasharray="5,3" x1="666.141716" x2="673.22833" y1="620.078725" y2="620.078725" /><marker id="id128" markerHeight="10" markerWidth="10" refX="5" refY="5"><circle cx="5" cy="5" fill="#000000" opacity="0.5" r="5" stroke-width="0" /></marker><line marker-end="url(#id128)" stroke="black" stroke-dasharray="5,3" x1="673.22833" x2="673.22833" y1="620.078725" y2="655.511795" /></g></g><g><g><line stroke="black" stroke-dasharray="5,3" x1="701.574786" x2="673.22833" y1="655.511795" y2="655.511795" /><marker id="id129" markerHeight="10" markerWidth="10" refX="5" refY="5"><circle cx="5" cy="5" fill="#000000" opacity="0.5" r="5" stroke-width="0" /></marker><line marker-end="url(#id129)" stroke="black" stroke-dasharray="5,3" x1="673.22833" x2="673.22833" y1="655.511795" y2="726.377935" /></g><g><line stroke="black" stroke-dasharray="5,3" x1="772.440926" x2="744.09447" y1="726.377935" y2="726.377935" /><marker id="id130" markerHeight="10" markerWidth="10" refX="5" refY="5"><circle cx="5" cy="5" fill="#000000" opacity="0.5" r="5" stroke-width="0" /></marker><line marker-end="url(#id130)" stroke="black" stroke-dasharray="5,3" x1="744.09447" x2="744.09447" y1="726.377935" y2="761.811005" /></g><g><line stroke="black" stroke-dasharray="5,3" x1="807.873996" x2="779.52754" y1="761.811005" y2="761.811005" /><marker id="id131" markerHeight="10" markerWidth="10" refX="5" refY="5"><circle cx="5" cy="5" fill="#000000" opacity="0.5" r="5" stroke-width="0" /></marker><line marker-end="url(#id131)" stroke="black" stroke-dasharray="5,3" x1="779.52754" x2="779.52754" y1="761.811005" y2="797.244075" /></g><g><line stroke="black" stroke-dasharray="5,3" x1="843.307066" x2="814.96061" y1="797.244075" y2="797.244075" /><marker id="id132" markerHeight="10" markerWidth="10" refX="5" refY="5"><circle cx="5" cy="5" fill="#000000" opacity="0.5" r="5" stroke-width="0" /></marker><line marker-end="url(#id132)" stroke="black" stroke-dasharray="5,3" x1="814.96061" x2="814.96061" y1="797.244075" y2="832.677145" /></g></g><g><g><line stroke="black" stroke-dasharray="5,3" x1="878.740136" x2="850.39368" y1="832.677145" y2="832.677145" /><marker id="id133" markerHeight="10" markerWidth="10" refX="5" refY="5"><circle cx="5" cy="5" fill="#000000" opacity="0.5" r="5" stroke-width="0" /></marker><line marker-end="url(#id133)" stroke="black" stroke-dasharray="5,3" x1="850.39368" x2="850.39368" y1="832.677145" y2="903.543285" /></g><g><line stroke="black" stroke-dasharray="5,3" x1="949.606276" x2="921.25982" y1="903.543285" y2="903.543285" /><marker id="id134" markerHeight="10" markerWidth="10" refX="5" refY="5"><circle cx="5" cy="5" fill="#000000" opacity="0.5" r="5" stroke-width="0" /></marker><line marker-end="url(#id134)" stroke="black" stroke-dasharray="5,3" x1="921.25982" x2="921.25982" y1="903.543285" y2="938.976355" /></g><g><line stroke="black" stroke-dasharray="5,3" x1="985.039346" x2="956.69289" y1="938.976355" y2="938.976355" /><marker id="id135" markerHeight="10" markerWidth="10" refX="5" refY="5"><circle cx="5" cy="5" fill="#000000" opacity="0.5" r="5" stroke-width="0" /></marker><line marker-end="url(#id135)" stroke="black" stroke-dasharray="5,3" x1="956.69289" x2="956.69289" y1="938.976355" y2="974.4094249999999" /></g><g><line stroke="black" stroke-dasharray="5,3" x1="1055.9054859999999" x2="1062.9921" y1="974.4094249999999" y2="974.4094249999999" /><marker id="id136" markerHeight="10" markerWidth="10" refX="5" refY="5"><circle cx="5" cy="5" fill="#000000" opacity="0.5" r="5" stroke-width="0" /></marker><line marker-end="url(#id136)" stroke="black" stroke-dasharray="5,3" x1="1062.9921" x2="1062.9921" y1="974.4094249999999" y2="1009.842495" /></g><g><line stroke="black" stroke-dasharray="5,3" x1="1091.338556" x2="1133.85824" y1="1009.842495" y2="1009.842495" /><marker id="id137" markerHeight="10" markerWidth="10" refX="5" refY="5"><circle cx="5" cy="5" fill="#000000" opacity="0.5" r="5" stroke-width="0" /></marker><line marker-end="url(#id137)" stroke="black" stroke-dasharray="5,3" x1="1133.85824" x2="1133.85824" y1="1009.842495" y2="1045.275565" /></g><g><line stroke="black" stroke-dasharray="5,3" x1="1268.503906" x2="1240.15745" y1="1045.275565" y2="1045.275565" /><marker id="id138" markerHeight="10" markerWidth="10" refX="5" refY="5"><circle cx="5" cy="5" fill="#000000" opacity="0.5" r="5" stroke-width="0" /></marker><line marker-end="url(#id138)" stroke="black" stroke-dasharray="5,3" x1="1240.15745" x2="1240.15745" y1="1045.275565" y2="1080.708635" /></g><g><line stroke="black" stroke-dasharray="5,3" x1="1339.370046" x2="1311.02359" y1="1080.708635" y2="1080.708635" /><marker id="id139" markerHeight="10" markerWidth="10" refX="5" refY="5"><circle cx="5" cy="5" fill="#000000" opacity="0.5" r="5" stroke-width="0" /></marker><line marker-end="url(#id139)" stroke="black" stroke-dasharray="5,3" x1="1311.02359" x2="1311.02359" y1="1080.708635" y2="1116.141705" /></g></g></g></g></svg>